<?xml version="1.0" encoding="utf-8"?>
<!-- Generator: Adobe Illustrator 25.0.0, SVG Export Plug-In . SVG Version: 6.00 Build 0)  -->
<svg version="1.1" id="Layer_1" xmlns="http://www.w3.org/2000/svg" xmlns:xlink="http://www.w3.org/1999/xlink" x="0px" y="0px"
	 viewBox="0 0 500 500" style="enable-background:new 0 0 500 500;" xml:space="preserve">
<path d="M487.54,312.79l-0.47-7.19l-0.89-12.25l-1.17-10.97l-2.61-19.19l-2.06-11.94l-5.31-22.89l-2.36-8.72l-1.89-6.36l-1.64-5.53
	l-1.64-5.28l-1.97-5.44l-2.22-6.39l-2.11-5.94l-3.94-10.06l-2.17-4.89l-2.78-6.33l-2.78-6.11l-3.5-7.33l-3.56-7.11l-2-3.89
	l-2.28-4.22l-4.44-8.06l-5.94-10l-7.74-12.51l-4.85-7.62l-2.65-1.27l-5.81-2.54l-13.71-5.79l-4.52-1.71l-8.71-3.19l-8.29-2.71
	l-8.42-2.79l-8.42-2.46l-8.96-2.42l-13.54-3.08l-14.83-3.29l-7.5,14.67l-5.5,12.17l-9.17-1.67l-10.83-1.33l-10.5-0.83l-13.33-0.5
	l-12.83-0.33l-14,0.33l-14.17,1.17l-24.17,2.67l-6-14.67l-6.83-11.67l-11.67,2.67l-15.67,3.67l-14.67,4l-16.67,5l-17.17,6.5
	l-22.17,9.83l-6,9.83l-7.17,11.33l-7,13.17l-5.83,10.33l-4.67,9.17l-5.5,12.33l-6.17,13.33l-6.33,16l-5.33,17l-4.33,14.83
	l-3.83,15.67l-2.33,12l-2,10.5l-2,11.83l-1.5,13.67l-1,12.83l-0.67,12.5l-0.83,14.83v12.67l0.83,14l1,17.67l12.17,8.67l12,7.83
	l16,10l12,7.17l22.83,11.17l19.33,8l26.83,9.17l6.33-9l5.5-9.17l6.67-11c0,0,0,0,6.33-13l-37.14-18.22l-2.76-1.81l1.21-1.01
	l2.54-1.89l2-1.68l2.24-1.74l2.15-1.43l4.1,1.93l7.29,3.22l2.71,1.1l4.44,1.71l5.52,2.08l5.88,2.06l2.62,0.92l2.71,0.83l7.85,2.29
	l14.48,3.84l19.42,3.78l13.69,1.92l15.11,1.33l12.64,0.28l10.94-0.11l15.94-0.83l7.11-0.86l14.36-2.17l10.36-1.97l8.78-2.03
	l12.01-3.28l5.24-1.57l6.57-2.19l6.99-2.56l3.91-1.48l4.34-1.71l4.41-1.79l5.84-2.5l5.06-2.38l3.73,3.06l3.83,3.02l2.23,1.94
	l-0.92,0.65l-5.69,3.25l-12.93,6.76l-20.88,9.08l0.51,1.14l4.75,9.21l3.33,5.75l4.08,7l5,7.96l3.21,4.71l2.71,3.83l2.08,2.96
	l1.88-0.62l5.54-1.79l6.12-2.08l5.88-2.21l6.5-2.33l4.67-1.92l4.96-2.17l4.5-1.83l3.75-1.62l3.79-1.71l3.88-1.75l4.17-2l4.67-2.46
	l4.33-2.12l4-2.08l4.29-2.33l6.73-3.9l5.15-3.06l3.9-2.33l4.15-2.6l4.52-2.9l5.82-3.91l2.96-1.97l3.62-2.55l3.8-2.59l2.96-2.23
	l3.85-2.81l0.5-6.47l0.5-6.08l0.39-7.08l0.39-14.5l0.31-13.11L487.54,312.79z M171,317c-23.47,0-42.5-21.75-42.5-48.58
	c0-26.83,19.03-48.58,42.5-48.58s42.5,21.75,42.5,48.58C213.5,295.25,194.47,317,171,317z M328.94,316.78
	c-23.47,0-42.5-21.75-42.5-48.58c0-26.83,19.03-48.58,42.5-48.58s42.5,21.75,42.5,48.58C371.44,295.03,352.42,316.78,328.94,316.78z
	"/>
</svg>
