<?xml version="1.0" encoding="utf-8"?>
<!-- Generator: Adobe Illustrator 25.0.0, SVG Export Plug-In . SVG Version: 6.00 Build 0)  -->
<svg version="1.1" id="Layer_1" xmlns="http://www.w3.org/2000/svg" xmlns:xlink="http://www.w3.org/1999/xlink" x="0px" y="0px"
	 viewBox="0 0 500 500" style="enable-background:new 0 0 500 500;" xml:space="preserve">
<path d="M393.82,280.89l-7.66-20.5l-5.8-10.56l-7.25-12.63l-9.32-9.94l3.93-8.7l3.52-7.66l0.83-8.7l-0.83-8.49l-1.86-5.8l0.62-11.6
	l2.07-20.71l2.69-16.57l1.04-15.32l1.24-18.02l0.83-21.54l-3.11-18.85l-2.49-11.6l-6.21-10.56l-7.25-6.83l-7.66-5.69l-8.28-5.07
	L331.7,21.2l-12.84-1.86h-17.4l-11.6,3.31l-10.56,5.38l-9.32,6.42c-10.77-1.66-16.15-2.49-16.15-2.49l-8.9-1.09l-16.67-0.26
	l-19.1,1.55l-11.44,3.47l-13.98,5.54l-13.15,6.73l-13.36,10.04l-8.18,10.18l-7.59,13.39l-4.83,12.98l-6.76,17.67l-3.04,13.53
	l-3.73,18.36l-3.73,18.5l-2.07,18.09v16.43l2.49,17.95l3.87,12.29l4.97,11.18l0.97,3.59l-10.35,8.84l-6.21,8.84l-5.8,9.53
	l-3.59,12.01l-2.21,11.04v9.25l3.04,7.18l0.14,12.01l-0.69,9.39l-0.83,14.63l-1.66,19.88l1.24,12.43l1.79,11.87l-1.93,14.22
	l-0.28,12.84l2.35,18.09l4.42,9.94l6.35,10.77l6.63,8.56l12.01,8.7l10.35,4.97l9.53,2.9l12.7,0.69H179l11.6-3.59l10.35-6.35
	l9.8-7.18l6.35-6.49l7.32-8.97l2.35-6.21l23.75,0.14l16.43-1.24l15.88-3.18l16.98-4.56l15.46-5.38l15.74-7.32l12.49-6.9l12.84-8.7
	l12.84-11.6l9.94-10.77l7.04-12.01l5.8-10.98l3.31-12.22l3.31-14.29v-20.71v-14.29L393.82,280.89z M351.75,329.25l-1.93,7.04
	l-4.56,11.87l-6.07,9.25l-6.21,5.94l-7.59,5.94l-7.87,6.07l-9.53,4.14l-11.87,4.42l-10.49,4l-8.97,2.07l-12.15,3.18l-11.6,2.62
	l-12.98,1.24l-12.01-0.69l-7.73-2.21l-11.04-4l-8.01-4.42l-6.9-4.97l-6.49-0.97l-3.45,4.97l-1.1,4.69l2.35,7.59l1.24,5.66
	l0.97,10.49l-0.83,6.35l-3.73,5.66l-6.76,5.25l-8.97,3.87l-5.94,0.83l-4-2.49l-5.52-5.11l-3.04-5.38l-1.66-7.04v-9.11l1.79-5.38
	l1.24-7.32l-0.14-5.8c0,0-0.55-4.14-0.69-4.83c-0.14-0.69-0.69-4.28-0.69-4.28l-1.52-7.04v-13.12l0.97-6.9l0.55-5.52l1.38-7.32
	l0.28-6.35l0.28-9.66l-0.55-9.25l-0.55-6.35l-1.1-10.63l-0.28-5.52l1.93-5.94l5.38-4l9.53-4.42l9.39-0.83l8.97,5.25l3.04,12.84
	l3.59,15.6l6.35,18.78l7.73,15.19l8.56,10.91l13.53,11.18l15.32,4.14h9.94l13.53-1.93l13.81-4.14l14.08-4.69l8.97-3.73l7.73-8.42
	l5.8-10.91l4-12.98l-0.69-8.97l-0.41-6.49l-2.21-7.18l-3.31-8.56l-6.35-7.32l-4.56-4.69l-7.18-5.66l-9.11-4.69l-5.25-1.93
	l-8.15-2.62l-4.97-1.66l-10.77-1.52l-13.12-1.1l-12.56-1.79l-16.98-2.62l-12.56-4.97l-9.25-5.38l-8.97-7.18l-7.18-7.46l-4.69-6.76
	l-4.56-9.8l-3.04-11.32l-1.93-13.39l1.38-10.91l1.66-10.91l3.31-18.5l4.42-17.81l6.76-21.81l5.25-12.01l9.8-9.94l8.84-4.97
	l11.32-3.45l18.5-2.21l13.67,0.83l14.08,3.87l12.56,6.21l9.11,7.32l8.28,8.01h4.69l2.9-4l1.24-5.52l-1.24-4.56l-0.97-5.04l0.21-4.42
	l3.04-6.97l4-4.07l3.8-2.42c0.55,0,7.87-1.38,7.87-1.38l9.11,3.31l4.83,8.42v14.77l-0.69,17.12l-1.52,17.67l-1.1,15.46l-0.97,14.91
	l-1.52,15.6l-0.83,16.57l0.83,12.98l-2.9,6.76l-5.52,5.11l-6.76,2.49h-8.56l-6.35-3.31l-4.83-6.76v-10.22L287,180.42l-3.45-9.39
	l-3.59-12.7l-5.52-11.6l-4.56-11.18l-4.69-9.39l-4.69-8.01l-7.04-7.04l-5.8-3.45l-7.59-2.76l-10.63-0.14l-8.97,3.59
	c0,0-5.25,8.42-5.52,8.84c-0.28,0.41-6.35,11.6-6.35,11.6l-4.42,16.43l-2.9,12.43l-1.93,12.01l-1.1,9.11v13.81l2.76,12.29l4.42,7.87
	l7.73,9.25l8.01,3.31l11.6,3.31l9.11,1.66l12.15,1.1l12.7,1.24l11.04,0.97l11.04,2.35l10.77,3.31l11.04,4.42l7.73,4.14l6.63,5.8
	l6.76,6.9l4.69,6.35l4.42,7.46l3.45,7.59l3.18,7.04l2.76,8.42l1.24,7.59l1.24,12.01L351.75,329.25z"/>
</svg>
